<!-- Generated by IcoMoon.io -->
<svg version="1.1" xmlns="http://www.w3.org/2000/svg" width="20" height="20" viewBox="0 0 12 20">
<title>about</title>
<path fill="#333" d="M7.857 14.018v2.679c0 0.246-0.201 0.446-0.446 0.446h-2.679c-0.246 0-0.446-0.201-0.446-0.446v-2.679c0-0.246 0.201-0.446 0.446-0.446h2.679c0.246 0 0.446 0.201 0.446 0.446zM11.384 7.321c0 2.121-1.44 2.935-2.5 3.527-0.658 0.379-1.071 1.15-1.071 1.473v0c0 0.246-0.19 0.536-0.446 0.536h-2.679c-0.246 0-0.402-0.379-0.402-0.625v-0.502c0-1.35 1.339-2.511 2.321-2.958 0.859-0.391 1.217-0.759 1.217-1.473 0-0.625-0.815-1.183-1.719-1.183-0.502 0-0.96 0.156-1.205 0.324-0.268 0.19-0.536 0.458-1.194 1.283-0.089 0.112-0.223 0.179-0.346 0.179-0.1 0-0.19-0.033-0.279-0.089l-1.83-1.395c-0.19-0.145-0.234-0.391-0.112-0.592 1.205-1.998 2.902-2.969 5.179-2.969 2.388 0 5.067 1.908 5.067 4.464z"></path>
</svg>
