<svg width="149" height="58" viewBox="0 0 149 58" fill="none" xmlns="http://www.w3.org/2000/svg">
<path d="M42.9363 14.875C43.003 14.6583 43.1197 14.5 43.2863 14.4C43.453 14.2833 43.6363 14.225 43.8363 14.225C44.103 14.225 44.328 14.3083 44.5113 14.475C44.7113 14.625 44.8113 14.8333 44.8113 15.1C44.8113 15.2167 44.7863 15.35 44.7363 15.5L39.0863 31.425C39.003 31.6583 38.8613 31.8417 38.6613 31.975C38.4613 32.0917 38.2363 32.15 37.9863 32.15C37.753 32.15 37.5363 32.0917 37.3363 31.975C37.1363 31.8417 36.9947 31.6583 36.9113 31.425L32.0113 17.575L27.0613 31.425C26.978 31.6583 26.8363 31.8417 26.6363 31.975C26.4363 32.0917 26.2197 32.15 25.9863 32.15C25.753 32.15 25.5363 32.0917 25.3363 31.975C25.1363 31.8417 24.9947 31.6583 24.9113 31.425L19.2363 15.5C19.1863 15.3667 19.1613 15.2417 19.1613 15.125C19.1613 14.8583 19.2613 14.6417 19.4613 14.475C19.678 14.3083 19.9197 14.225 20.1863 14.225C20.3863 14.225 20.5697 14.2833 20.7363 14.4C20.9197 14.5 21.0447 14.6583 21.1113 14.875L26.0363 29.075L31.0363 15.025C31.1197 14.775 31.253 14.5917 31.4363 14.475C31.6197 14.3417 31.8197 14.275 32.0363 14.275C32.253 14.275 32.453 14.3417 32.6363 14.475C32.8197 14.6083 32.953 14.8 33.0363 15.05L37.9613 29.125L42.9363 14.875ZM48.976 32C48.6593 32 48.401 31.9083 48.201 31.725C48.0176 31.5417 47.926 31.3 47.926 31V15.375C47.926 15.075 48.0176 14.8333 48.201 14.65C48.401 14.4667 48.6593 14.375 48.976 14.375H58.326C58.626 14.375 58.8593 14.45 59.026 14.6C59.1926 14.75 59.276 14.9583 59.276 15.225C59.276 15.4917 59.1926 15.7 59.026 15.85C58.8593 16 58.626 16.075 58.326 16.075H49.951V22.2H57.826C58.126 22.2 58.3593 22.275 58.526 22.425C58.6926 22.575 58.776 22.7833 58.776 23.05C58.776 23.3167 58.6926 23.525 58.526 23.675C58.3593 23.825 58.126 23.9 57.826 23.9H49.951V30.3H58.326C58.626 30.3 58.8593 30.375 59.026 30.525C59.1926 30.6583 59.276 30.8667 59.276 31.15C59.276 31.4167 59.1926 31.625 59.026 31.775C58.8593 31.925 58.626 32 58.326 32H48.976ZM72.4768 22.95C73.4934 23.2167 74.2768 23.7167 74.8268 24.45C75.3934 25.1833 75.6768 26.1 75.6768 27.2C75.6768 28.75 75.1684 29.9417 74.1518 30.775C73.1351 31.5917 71.6934 32 69.8268 32H63.5268C63.2101 32 62.9518 31.9083 62.7518 31.725C62.5684 31.5417 62.4768 31.3 62.4768 31V15.375C62.4768 15.075 62.5684 14.8333 62.7518 14.65C62.9518 14.4667 63.2101 14.375 63.5268 14.375H69.5518C71.3684 14.375 72.7768 14.775 73.7768 15.575C74.7768 16.375 75.2768 17.5083 75.2768 18.975C75.2768 19.925 75.0268 20.7417 74.5268 21.425C74.0434 22.1083 73.3601 22.6167 72.4768 22.95ZM64.5018 22.2H69.2518C70.5684 22.2 71.5601 21.9333 72.2268 21.4C72.9101 20.8667 73.2518 20.0917 73.2518 19.075C73.2518 17.075 71.9184 16.075 69.2518 16.075H64.5018V22.2ZM69.6268 30.3C71.0101 30.3 72.0268 30.05 72.6768 29.55C73.3434 29.0333 73.6768 28.2333 73.6768 27.15C73.6768 24.9833 72.3268 23.9 69.6268 23.9H64.5018V30.3H69.6268ZM86.8178 32C86.5011 32 86.2428 31.9083 86.0428 31.725C85.8594 31.5417 85.7678 31.3 85.7678 31V15.375C85.7678 15.075 85.8594 14.8333 86.0428 14.65C86.2428 14.4667 86.5011 14.375 86.8178 14.375H91.6928C94.5094 14.375 96.6844 15.1417 98.2178 16.675C99.7678 18.1917 100.543 20.3583 100.543 23.175C100.543 25.9917 99.7678 28.1667 98.2178 29.7C96.6678 31.2333 94.4928 32 91.6928 32H86.8178ZM91.5678 30.25C96.1344 30.25 98.4178 27.8917 98.4178 23.175C98.4178 18.475 96.1344 16.125 91.5678 16.125H87.8178V30.25H91.5678ZM105.299 32C104.983 32 104.724 31.9083 104.524 31.725C104.341 31.5417 104.249 31.3 104.249 31V15.375C104.249 15.075 104.341 14.8333 104.524 14.65C104.724 14.4667 104.983 14.375 105.299 14.375H114.649C114.949 14.375 115.183 14.45 115.349 14.6C115.516 14.75 115.599 14.9583 115.599 15.225C115.599 15.4917 115.516 15.7 115.349 15.85C115.183 16 114.949 16.075 114.649 16.075H106.274V22.2H114.149C114.449 22.2 114.683 22.275 114.849 22.425C115.016 22.575 115.099 22.7833 115.099 23.05C115.099 23.3167 115.016 23.525 114.849 23.675C114.683 23.825 114.449 23.9 114.149 23.9H106.274V30.3H114.649C114.949 30.3 115.183 30.375 115.349 30.525C115.516 30.6583 115.599 30.8667 115.599 31.15C115.599 31.4167 115.516 31.625 115.349 31.775C115.183 31.925 114.949 32 114.649 32H105.299ZM131.579 14.775C131.662 14.5917 131.779 14.45 131.929 14.35C132.095 14.25 132.27 14.2 132.454 14.2C132.72 14.2 132.954 14.2917 133.154 14.475C133.37 14.6417 133.479 14.85 133.479 15.1C133.479 15.2333 133.445 15.3667 133.379 15.5L126.204 31.45C126.104 31.6667 125.954 31.8333 125.754 31.95C125.554 32.0667 125.337 32.125 125.104 32.125C124.87 32.125 124.654 32.0667 124.454 31.95C124.254 31.8333 124.104 31.6667 124.004 31.45L116.854 15.5C116.804 15.3667 116.779 15.2417 116.779 15.125C116.779 14.8583 116.887 14.6417 117.104 14.475C117.32 14.2917 117.562 14.2 117.829 14.2C118.229 14.2 118.52 14.3917 118.704 14.775L125.154 29.35L131.579 14.775Z" fill="#333333"/>
<path d="M47.0603 46.05C46.9336 46.05 46.8336 46.0133 46.7603 45.94C46.6869 45.86 46.6503 45.7567 46.6503 45.63V39.35C46.6503 39.23 46.6869 39.1333 46.7603 39.06C46.8403 38.9867 46.9436 38.95 47.0703 38.95H50.7103C50.8303 38.95 50.9236 38.98 50.9903 39.04C51.0569 39.1 51.0903 39.1867 51.0903 39.3C51.0903 39.4067 51.0569 39.49 50.9903 39.55C50.9236 39.61 50.8303 39.64 50.7103 39.64H47.4603V42.07H50.5103C50.6303 42.07 50.7236 42.1 50.7903 42.16C50.8569 42.22 50.8903 42.3067 50.8903 42.42C50.8903 42.5267 50.8569 42.61 50.7903 42.67C50.7236 42.73 50.6303 42.76 50.5103 42.76H47.4603V45.63C47.4603 45.7567 47.4236 45.86 47.3503 45.94C47.2836 46.0133 47.1869 46.05 47.0603 46.05ZM55.769 44.87C55.8424 44.87 55.9057 44.9 55.959 44.96C56.0124 45.02 56.039 45.0967 56.039 45.19C56.039 45.3567 55.9224 45.51 55.689 45.65C55.449 45.79 55.1957 45.8967 54.929 45.97C54.6624 46.0367 54.4024 46.07 54.149 46.07C53.3957 46.07 52.799 45.8467 52.359 45.4C51.9257 44.9533 51.709 44.3367 51.709 43.55C51.709 43.05 51.8057 42.61 51.999 42.23C52.1924 41.8433 52.4624 41.5433 52.809 41.33C53.1624 41.1167 53.5624 41.01 54.009 41.01C54.6424 41.01 55.1457 41.2167 55.519 41.63C55.8924 42.0433 56.079 42.6033 56.079 43.31C56.079 43.4433 56.0524 43.54 55.999 43.6C55.9457 43.66 55.859 43.69 55.739 43.69H52.519C52.579 44.8367 53.1224 45.41 54.149 45.41C54.409 45.41 54.6324 45.3767 54.819 45.31C55.0057 45.2367 55.2057 45.14 55.419 45.02C55.5924 44.92 55.709 44.87 55.769 44.87ZM54.019 41.64C53.5924 41.64 53.249 41.7733 52.989 42.04C52.7357 42.3067 52.5857 42.6833 52.539 43.17H55.369C55.3557 42.6767 55.2324 42.3 54.999 42.04C54.7657 41.7733 54.439 41.64 54.019 41.64ZM57.6825 46.05C57.5625 46.05 57.4625 46.0167 57.3825 45.95C57.3091 45.8767 57.2725 45.7767 57.2725 45.65V39.3C57.2725 39.1733 57.3091 39.0767 57.3825 39.01C57.4625 38.9367 57.5625 38.9 57.6825 38.9C57.7958 38.9 57.8891 38.9367 57.9625 39.01C58.0425 39.0767 58.0825 39.1733 58.0825 39.3V45.65C58.0825 45.7767 58.0425 45.8767 57.9625 45.95C57.8891 46.0167 57.7958 46.05 57.6825 46.05ZM60.0067 46.05C59.8867 46.05 59.7867 46.0167 59.7067 45.95C59.6333 45.8767 59.5967 45.7767 59.5967 45.65V41.43C59.5967 41.3033 59.6333 41.2067 59.7067 41.14C59.7867 41.0667 59.8867 41.03 60.0067 41.03C60.1267 41.03 60.2233 41.0667 60.2967 41.14C60.37 41.2067 60.4067 41.3033 60.4067 41.43V45.65C60.4067 45.7833 60.37 45.8833 60.2967 45.95C60.2233 46.0167 60.1267 46.05 60.0067 46.05ZM60.0067 39.98C59.8467 39.98 59.7167 39.9333 59.6167 39.84C59.5167 39.7467 59.4667 39.6233 59.4667 39.47C59.4667 39.3233 59.5167 39.2033 59.6167 39.11C59.7167 39.0167 59.8467 38.97 60.0067 38.97C60.1667 38.97 60.2967 39.0167 60.3967 39.11C60.4967 39.2033 60.5467 39.3233 60.5467 39.47C60.5467 39.6233 60.4967 39.7467 60.3967 39.84C60.2967 39.9333 60.1667 39.98 60.0067 39.98ZM64.3709 41.01C64.7976 41.01 65.1742 41.1167 65.5009 41.33C65.8276 41.5433 66.0809 41.8433 66.2609 42.23C66.4409 42.61 66.5309 43.0533 66.5309 43.56C66.5309 44.0667 66.4409 44.51 66.2609 44.89C66.0809 45.2633 65.8276 45.5533 65.5009 45.76C65.1809 45.9667 64.8042 46.07 64.3709 46.07C63.9909 46.07 63.6576 45.9867 63.3709 45.82C63.0909 45.6533 62.8776 45.4167 62.7309 45.11V47.46C62.7309 47.58 62.6942 47.6733 62.6209 47.74C62.5542 47.8133 62.4576 47.85 62.3309 47.85C62.2042 47.85 62.1042 47.8133 62.0309 47.74C61.9576 47.6667 61.9209 47.5733 61.9209 47.46V41.43C61.9209 41.31 61.9576 41.2133 62.0309 41.14C62.1042 41.0667 62.2042 41.03 62.3309 41.03C62.4576 41.03 62.5542 41.0667 62.6209 41.14C62.6942 41.2133 62.7309 41.31 62.7309 41.43V41.97C62.8776 41.6633 63.0909 41.4267 63.3709 41.26C63.6576 41.0933 63.9909 41.01 64.3709 41.01ZM64.2109 45.4C64.6842 45.4 65.0509 45.24 65.3109 44.92C65.5709 44.6 65.7009 44.1467 65.7009 43.56C65.7009 42.9733 65.5709 42.5167 65.3109 42.19C65.0509 41.8567 64.6842 41.69 64.2109 41.69C63.7376 41.69 63.3709 41.85 63.1109 42.17C62.8576 42.49 62.7309 42.9467 62.7309 43.54C62.7309 44.1333 62.8576 44.5933 63.1109 44.92C63.3709 45.24 63.7376 45.4 64.2109 45.4ZM71.5112 44.87C71.5845 44.87 71.6479 44.9 71.7012 44.96C71.7545 45.02 71.7812 45.0967 71.7812 45.19C71.7812 45.3567 71.6645 45.51 71.4312 45.65C71.1912 45.79 70.9379 45.8967 70.6712 45.97C70.4045 46.0367 70.1445 46.07 69.8912 46.07C69.1379 46.07 68.5412 45.8467 68.1012 45.4C67.6679 44.9533 67.4512 44.3367 67.4512 43.55C67.4512 43.05 67.5479 42.61 67.7412 42.23C67.9345 41.8433 68.2045 41.5433 68.5512 41.33C68.9045 41.1167 69.3045 41.01 69.7512 41.01C70.3845 41.01 70.8879 41.2167 71.2612 41.63C71.6345 42.0433 71.8212 42.6033 71.8212 43.31C71.8212 43.4433 71.7945 43.54 71.7412 43.6C71.6879 43.66 71.6012 43.69 71.4812 43.69H68.2612C68.3212 44.8367 68.8645 45.41 69.8912 45.41C70.1512 45.41 70.3745 45.3767 70.5612 45.31C70.7479 45.2367 70.9479 45.14 71.1612 45.02C71.3345 44.92 71.4512 44.87 71.5112 44.87ZM69.7612 41.64C69.3345 41.64 68.9912 41.7733 68.7312 42.04C68.4779 42.3067 68.3279 42.6833 68.2812 43.17H71.1112C71.0979 42.6767 70.9745 42.3 70.7412 42.04C70.5079 41.7733 70.1812 41.64 69.7612 41.64ZM80.9528 42.33C81.0528 42.33 81.1328 42.36 81.1928 42.42C81.2594 42.48 81.2928 42.5633 81.2928 42.67V45.16C81.2928 45.32 81.2661 45.44 81.2128 45.52C81.1661 45.6 81.0761 45.6633 80.9428 45.71C80.6761 45.8233 80.3528 45.9133 79.9728 45.98C79.5928 46.0467 79.2128 46.08 78.8328 46.08C78.1328 46.08 77.5294 45.9367 77.0228 45.65C76.5161 45.3633 76.1261 44.95 75.8528 44.41C75.5861 43.87 75.4528 43.2233 75.4528 42.47C75.4528 41.73 75.5861 41.09 75.8528 40.55C76.1194 40.01 76.5028 39.5967 77.0028 39.31C77.5028 39.0167 78.0894 38.87 78.7628 38.87C79.2294 38.87 79.6628 38.9433 80.0628 39.09C80.4628 39.23 80.7994 39.4333 81.0728 39.7C81.1861 39.8133 81.2428 39.93 81.2428 40.05C81.2428 40.1433 81.2161 40.2267 81.1628 40.3C81.1094 40.3667 81.0428 40.4 80.9628 40.4C80.8828 40.4 80.7894 40.36 80.6828 40.28C80.3361 40.0133 80.0228 39.83 79.7428 39.73C79.4628 39.6233 79.1394 39.57 78.7728 39.57C77.9794 39.57 77.3694 39.82 76.9428 40.32C76.5228 40.82 76.3128 41.5367 76.3128 42.47C76.3128 43.4233 76.5261 44.15 76.9528 44.65C77.3861 45.1433 78.0194 45.39 78.8528 45.39C79.4728 45.39 80.0361 45.2967 80.5428 45.11V42.97H79.0828C78.9694 42.97 78.8794 42.94 78.8128 42.88C78.7461 42.82 78.7128 42.7433 78.7128 42.65C78.7128 42.55 78.7461 42.4733 78.8128 42.42C78.8794 42.36 78.9694 42.33 79.0828 42.33H80.9528ZM84.8491 46.07C84.3891 46.07 83.9824 45.9667 83.6291 45.76C83.2824 45.5533 83.0124 45.26 82.8191 44.88C82.6324 44.4933 82.5391 44.0467 82.5391 43.54C82.5391 43.0333 82.6324 42.59 82.8191 42.21C83.0124 41.8233 83.2824 41.5267 83.6291 41.32C83.9824 41.1133 84.3891 41.01 84.8491 41.01C85.3091 41.01 85.7158 41.1133 86.0691 41.32C86.4224 41.5267 86.6924 41.8233 86.8791 42.21C87.0724 42.59 87.1691 43.0333 87.1691 43.54C87.1691 44.0467 87.0724 44.4933 86.8791 44.88C86.6924 45.26 86.4224 45.5533 86.0691 45.76C85.7158 45.9667 85.3091 46.07 84.8491 46.07ZM84.8491 45.4C85.3291 45.4 85.6958 45.2433 85.9491 44.93C86.2091 44.61 86.3391 44.1467 86.3391 43.54C86.3391 42.9467 86.2091 42.49 85.9491 42.17C85.6891 41.8433 85.3224 41.68 84.8491 41.68C84.3758 41.68 84.0091 41.8433 83.7491 42.17C83.4891 42.49 83.3591 42.9467 83.3591 43.54C83.3591 44.14 83.4858 44.6 83.7391 44.92C83.9991 45.24 84.3691 45.4 84.8491 45.4ZM93.796 41.01C94.876 41.01 95.416 41.6533 95.416 42.94V45.65C95.416 45.7767 95.3793 45.8767 95.306 45.95C95.2326 46.0167 95.136 46.05 95.016 46.05C94.896 46.05 94.796 46.0167 94.716 45.95C94.6426 45.8767 94.606 45.7767 94.606 45.65V42.96C94.606 42.5133 94.526 42.19 94.366 41.99C94.206 41.79 93.956 41.69 93.616 41.69C93.2093 41.69 92.8893 41.8267 92.656 42.1C92.4226 42.3733 92.306 42.7433 92.306 43.21V45.65C92.306 45.7767 92.266 45.8767 92.186 45.95C92.1126 46.0167 92.016 46.05 91.896 46.05C91.776 46.05 91.6793 46.0167 91.606 45.95C91.5326 45.8767 91.496 45.7767 91.496 45.65V42.96C91.496 42.5133 91.416 42.19 91.256 41.99C91.096 41.79 90.8426 41.69 90.496 41.69C90.096 41.69 89.776 41.8267 89.536 42.1C89.3026 42.3733 89.186 42.7433 89.186 43.21V45.65C89.186 45.7767 89.1493 45.8767 89.076 45.95C89.0026 46.0167 88.906 46.05 88.786 46.05C88.666 46.05 88.566 46.0167 88.486 45.95C88.4126 45.8767 88.376 45.7767 88.376 45.65V41.43C88.376 41.31 88.4126 41.2133 88.486 41.14C88.566 41.0667 88.666 41.03 88.786 41.03C88.8993 41.03 88.9926 41.0667 89.066 41.14C89.1393 41.2067 89.176 41.3 89.176 41.42V41.9C89.3226 41.6133 89.526 41.3933 89.786 41.24C90.046 41.0867 90.346 41.01 90.686 41.01C91.446 41.01 91.9426 41.33 92.176 41.97C92.316 41.6767 92.5293 41.4433 92.816 41.27C93.1026 41.0967 93.4293 41.01 93.796 41.01ZM100.662 44.87C100.735 44.87 100.798 44.9 100.852 44.96C100.905 45.02 100.932 45.0967 100.932 45.19C100.932 45.3567 100.815 45.51 100.582 45.65C100.342 45.79 100.088 45.8967 99.8216 45.97C99.5549 46.0367 99.2949 46.07 99.0416 46.07C98.2883 46.07 97.6916 45.8467 97.2516 45.4C96.8183 44.9533 96.6016 44.3367 96.6016 43.55C96.6016 43.05 96.6983 42.61 96.8916 42.23C97.0849 41.8433 97.3549 41.5433 97.7016 41.33C98.0549 41.1167 98.4549 41.01 98.9016 41.01C99.5349 41.01 100.038 41.2167 100.412 41.63C100.785 42.0433 100.972 42.6033 100.972 43.31C100.972 43.4433 100.945 43.54 100.892 43.6C100.838 43.66 100.752 43.69 100.632 43.69H97.4116C97.4716 44.8367 98.0149 45.41 99.0416 45.41C99.3016 45.41 99.5249 45.3767 99.7116 45.31C99.8983 45.2367 100.098 45.14 100.312 45.02C100.485 44.92 100.602 44.87 100.662 44.87ZM98.9116 41.64C98.4849 41.64 98.1416 41.7733 97.8816 42.04C97.6283 42.3067 97.4783 42.6833 97.4316 43.17H100.262C100.248 42.6767 100.125 42.3 99.8916 42.04C99.6583 41.7733 99.3316 41.64 98.9116 41.64ZM103.805 46.07C103.498 46.07 103.205 46.0333 102.925 45.96C102.652 45.8867 102.408 45.7833 102.195 45.65C102.075 45.57 101.988 45.4967 101.935 45.43C101.888 45.3567 101.865 45.27 101.865 45.17C101.865 45.0833 101.888 45.0133 101.935 44.96C101.988 44.9 102.055 44.87 102.135 44.87C102.215 44.87 102.332 44.92 102.485 45.02C102.685 45.14 102.882 45.2367 103.075 45.31C103.275 45.3767 103.522 45.41 103.815 45.41C104.175 45.41 104.455 45.3467 104.655 45.22C104.855 45.0933 104.955 44.91 104.955 44.67C104.955 44.5233 104.918 44.4067 104.845 44.32C104.772 44.2267 104.645 44.1467 104.465 44.08C104.285 44.0067 104.022 43.9333 103.675 43.86C103.088 43.7333 102.668 43.5633 102.415 43.35C102.162 43.1367 102.035 42.8467 102.035 42.48C102.035 42.1933 102.115 41.94 102.275 41.72C102.435 41.5 102.655 41.3267 102.935 41.2C103.222 41.0733 103.545 41.01 103.905 41.01C104.165 41.01 104.415 41.0467 104.655 41.12C104.902 41.1867 105.118 41.2833 105.305 41.41C105.532 41.57 105.645 41.7367 105.645 41.91C105.645 41.9967 105.618 42.07 105.565 42.13C105.512 42.19 105.448 42.22 105.375 42.22C105.295 42.22 105.175 42.1633 105.015 42.05C104.828 41.93 104.652 41.8367 104.485 41.77C104.318 41.7033 104.112 41.67 103.865 41.67C103.552 41.67 103.298 41.74 103.105 41.88C102.918 42.02 102.825 42.2067 102.825 42.44C102.825 42.5867 102.858 42.7067 102.925 42.8C102.998 42.8867 103.115 42.9667 103.275 43.04C103.442 43.1067 103.678 43.1733 103.985 43.24C104.438 43.34 104.788 43.45 105.035 43.57C105.288 43.69 105.468 43.8367 105.575 44.01C105.682 44.1833 105.735 44.4033 105.735 44.67C105.735 45.09 105.558 45.43 105.205 45.69C104.852 45.9433 104.385 46.07 103.805 46.07Z" fill="#333333"/>
<path d="M29.5 1H2C1.44771 1 1 1.44772 1 2V35" stroke="#333333" stroke-linejoin="bevel"/>
<path d="M120 57H147.5C148.052 57 148.5 56.5523 148.5 56V23" stroke="#333333" stroke-linejoin="bevel"/>
</svg>
